<?xml version="1.0" encoding="UTF-8" standalone="no"?>
<!-- Created with Inkscape (http://www.inkscape.org/) -->

<svg
   width="439.11688"
   height="96.998047"
   viewBox="0 0 116.183 25.664066"
   version="1.1"
   id="svg1"
   sodipodi:docname="Logo2.svg"
   inkscape:version="1.3.2 (091e20e, 2023-11-25, custom)"
   xmlns:inkscape="http://www.inkscape.org/namespaces/inkscape"
   xmlns:sodipodi="http://sodipodi.sourceforge.net/DTD/sodipodi-0.dtd"
   xmlns="http://www.w3.org/2000/svg"
   xmlns:svg="http://www.w3.org/2000/svg">
  <sodipodi:namedview
     id="namedview1"
     pagecolor="#ffffff"
     bordercolor="#000000"
     borderopacity="0.25"
     inkscape:showpageshadow="2"
     inkscape:pageopacity="0.0"
     inkscape:pagecheckerboard="0"
     inkscape:deskcolor="#d1d1d1"
     inkscape:document-units="mm"
     inkscape:zoom="1.3056591"
     inkscape:cx="213.68518"
     inkscape:cy="315.16649"
     inkscape:window-width="1920"
     inkscape:window-height="1017"
     inkscape:window-x="-8"
     inkscape:window-y="-8"
     inkscape:window-maximized="1"
     inkscape:current-layer="layer1" />
  <defs
     id="defs1" />
  <g
     id="layer1"
     transform="translate(-105.01171,-102.02632)">
    <path
       style="fill:#fefeff;fill-opacity:0;stroke:#ffffff;stroke-width:2.83673;stroke-linecap:round;stroke-linejoin:round;stroke-dasharray:none;stroke-opacity:1"
       id="path1"
       d="m 123.20642,114.8655 -4.67025,2.69637 -4.67024,2.69637 v -5.39274 -5.39273 l 4.67024,2.69636 z"
       inkscape:export-filename="Logo3.svg"
       inkscape:export-xdpi="96"
       inkscape:export-ydpi="96" />
    <circle
       style="fill:#fefeff;fill-opacity:0;stroke:#ffffff;stroke-width:2.83673;stroke-linecap:round;stroke-linejoin:miter;stroke-dasharray:none;stroke-opacity:1"
       id="path4"
       cx="117.84374"
       cy="114.85835"
       r="11.413671" />
    <path
       style="fill:#fefeff;fill-opacity:0;stroke:#ffffff;stroke-width:3.33548;stroke-linecap:round;stroke-linejoin:miter;stroke-dasharray:none;stroke-opacity:1"
       d="m 139.01883,104.61958 v 20.16037"
       id="path5" />
    <path
       style="fill:#fefeff;fill-opacity:0;stroke:#ffffff;stroke-width:3.84803;stroke-linecap:round;stroke-linejoin:miter;stroke-dasharray:none;stroke-opacity:1"
       d="m 155.96766,112.06563 v 12.44663"
       id="path5-6" />
    <path
       style="fill:#fefeff;fill-opacity:0;stroke:#ffffff;stroke-width:3.84803;stroke-linecap:round;stroke-linejoin:miter;stroke-dasharray:none;stroke-opacity:1"
       d="m 163.05379,112.076 v 12.44662"
       id="path5-6-8" />
    <path
       style="fill:#fefeff;fill-opacity:0;stroke:#ffffff;stroke-width:3.84803;stroke-linecap:round;stroke-linejoin:miter;stroke-dasharray:none;stroke-opacity:1"
       d="m 171.80804,112.1241 v 12.44663"
       id="path5-6-8-7" />
    <path
       style="fill:#fefeff;fill-opacity:0;stroke:#ffffff;stroke-width:3.84803;stroke-linecap:round;stroke-linejoin:miter;stroke-dasharray:none;stroke-opacity:1"
       d="m 149.05834,107.84624 -9.6202,9.62021"
       id="path5-4" />
    <path
       style="fill:#fefeff;fill-opacity:0;stroke:#ffffff;stroke-width:3.84803;stroke-linecap:round;stroke-linejoin:miter;stroke-dasharray:none;stroke-opacity:1"
       d="m 149.13227,124.53864 -9.6202,-9.6202"
       id="path5-4-7" />
    <path
       style="fill:#fefeff;fill-opacity:0;stroke:#ffffff;stroke-width:3.33548;stroke-linecap:round;stroke-linejoin:miter;stroke-dasharray:none;stroke-opacity:1"
       d="m 193.55744,104.59301 v 20.16038"
       id="path5-8" />
    <path
       style="fill:#fefeff;fill-opacity:0;stroke:#ffffff;stroke-width:3.84803;stroke-linecap:round;stroke-linejoin:miter;stroke-dasharray:none;stroke-opacity:1"
       d="m 203.59696,107.81968 -9.6202,9.62021"
       id="path5-4-8" />
    <path
       style="fill:#fefeff;fill-opacity:0;stroke:#ffffff;stroke-width:3.84803;stroke-linecap:round;stroke-linejoin:miter;stroke-dasharray:none;stroke-opacity:1"
       d="m 203.67089,124.51208 -9.62021,-9.62021"
       id="path5-4-7-4" />
    <ellipse
       style="fill:#fefeff;fill-opacity:1;stroke:#ffffff;stroke-width:0;stroke-linecap:round;stroke-linejoin:miter;stroke-dasharray:none;stroke-opacity:0.705056"
       id="path7"
       cx="155.97102"
       cy="107.56693"
       rx="1.9240115"
       ry="2.0039408" />
    <path
       style="fill:#fefeff;fill-opacity:0;stroke:#ffffff;stroke-width:3.84803;stroke-linecap:round;stroke-linejoin:miter;stroke-dasharray:none;stroke-opacity:1"
       id="path8"
       d="m 163.05538,112.07589 a 4.3695271,4.3695271 0 0 1 2.18682,-3.78531 4.3695271,4.3695271 0 0 1 4.37158,0.004 4.3695271,4.3695271 0 0 1 2.18064,3.78887" />
    <path
       style="fill:#fefeff;fill-opacity:0;stroke:#ffffff;stroke-width:3.84803;stroke-linecap:round;stroke-linejoin:miter;stroke-dasharray:none;stroke-opacity:1"
       d="m 178.52354,111.45909 v 8.67263"
       id="path5-6-8-3" />
    <path
       style="fill:#fefeff;fill-opacity:0;stroke:#ffffff;stroke-width:3.84803;stroke-linecap:round;stroke-linejoin:miter;stroke-dasharray:none;stroke-opacity:1"
       d="m 187.25236,112.06454 v 8.41394"
       id="path5-6-8-7-6" />
    <path
       style="fill:#fefeff;fill-opacity:0;stroke:#ffffff;stroke-width:3.84803;stroke-linecap:round;stroke-linejoin:miter;stroke-dasharray:none;stroke-opacity:1"
       id="path8-4"
       d="m 178.52091,112.08634 a 4.3695271,4.3695271 0 0 1 2.18682,-3.78531 4.3695271,4.3695271 0 0 1 4.37159,0.004 4.3695271,4.3695271 0 0 1 2.18064,3.78887" />
    <path
       style="fill:#fefeff;fill-opacity:0;stroke:#ffffff;stroke-width:3.84803;stroke-linecap:round;stroke-linejoin:miter;stroke-dasharray:none;stroke-opacity:1"
       id="path8-4-8"
       d="m 187.25708,120.30828 a 4.3695271,4.3695271 0 0 1 -2.18682,3.7853 4.3695271,4.3695271 0 0 1 -4.37158,-0.004 4.3695271,4.3695271 0 0 1 -2.18065,-3.78887" />
    <path
       style="fill:#fefeff;fill-opacity:0;stroke:#ffffff;stroke-width:3.84803;stroke-linecap:round;stroke-linejoin:miter;stroke-dasharray:none;stroke-opacity:1"
       d="m 210.53428,111.46403 v 8.67263"
       id="path5-6-8-3-6" />
    <path
       style="fill:#fefeff;fill-opacity:0;stroke:#ffffff;stroke-width:3.84803;stroke-linecap:round;stroke-linejoin:miter;stroke-dasharray:none;stroke-opacity:1"
       d="m 219.2631,112.06949 v 8.41394"
       id="path5-6-8-7-6-4" />
    <path
       style="fill:#fefeff;fill-opacity:0;stroke:#ffffff;stroke-width:3.84803;stroke-linecap:round;stroke-linejoin:miter;stroke-dasharray:none;stroke-opacity:1"
       id="path8-4-7"
       d="m 210.53165,112.09128 a 4.3695271,4.3695271 0 0 1 2.18682,-3.7853 4.3695271,4.3695271 0 0 1 4.37159,0.004 4.3695271,4.3695271 0 0 1 2.18064,3.78886" />
    <path
       style="fill:#fefeff;fill-opacity:0;stroke:#ffffff;stroke-width:3.84803;stroke-linecap:round;stroke-linejoin:miter;stroke-dasharray:none;stroke-opacity:1"
       id="path8-4-8-2"
       d="m 219.26782,120.31322 a 4.3695271,4.3695271 0 0 1 -2.18682,3.78531 4.3695271,4.3695271 0 0 1 -4.37158,-0.004 4.3695271,4.3695271 0 0 1 -2.18065,-3.78887" />
  </g>
</svg>
