<?xml version="1.0" encoding="UTF-8" standalone="no"?>
<!-- Created with Inkscape (http://www.inkscape.org/) -->

<svg
   width="115.29884mm"
   height="83.185158mm"
   viewBox="0 0 115.29884 83.185158"
   version="1.1"
   id="svg1"
   xmlns="http://www.w3.org/2000/svg"
   xmlns:svg="http://www.w3.org/2000/svg">
  <defs
     id="defs1" />
  <g
     id="layer1"
     transform="translate(-50.974856,-34.728601)">
    <path
       style="fill:#fefeff;fill-opacity:0;stroke:#ffffff;stroke-width:25.4102;stroke-linecap:round;stroke-linejoin:round;stroke-dasharray:none;stroke-opacity:1"
       id="path1"
       d="m 165.51641,60.112686 -41.83408,24.152919 -41.834086,24.152915 2e-6,-48.305835 -2e-6,-48.305838 41.834086,24.152922 z"
       transform="matrix(0.20824996,0,0,0.20824996,82.264163,46.160546)" />
    <circle
       style="fill:#fefeff;fill-opacity:0;stroke:#ffffff;stroke-width:5.29167;stroke-linecap:round;stroke-linejoin:miter;stroke-dasharray:none;stroke-opacity:1"
       id="path4"
       cx="106.72932"
       cy="58.665657"
       r="21.291222" />
    <path
       style="fill:#fefeff;fill-opacity:0;stroke:#ffffff;stroke-width:4.58683;stroke-linecap:round;stroke-linejoin:miter;stroke-dasharray:none;stroke-opacity:1"
       d="M 53.268271,87.679345 V 115.40319"
       id="path5" />
    <path
       style="fill:#fefeff;fill-opacity:0;stroke:#ffffff;stroke-width:5.29167;stroke-linecap:round;stroke-linejoin:miter;stroke-dasharray:none;stroke-opacity:1"
       d="M 76.575709,97.918905 V 115.03507"
       id="path5-6" />
    <path
       style="fill:#fefeff;fill-opacity:0;stroke:#ffffff;stroke-width:5.29167;stroke-linecap:round;stroke-linejoin:miter;stroke-dasharray:none;stroke-opacity:1"
       d="M 86.320313,97.933155 V 115.04932"
       id="path5-6-8" />
    <path
       style="fill:#fefeff;fill-opacity:0;stroke:#ffffff;stroke-width:5.29167;stroke-linecap:round;stroke-linejoin:miter;stroke-dasharray:none;stroke-opacity:1"
       d="M 98.358855,97.999305 V 115.11547"
       id="path5-6-8-7" />
    <path
       style="fill:#fefeff;fill-opacity:0;stroke:#ffffff;stroke-width:5.29167;stroke-linecap:round;stroke-linejoin:miter;stroke-dasharray:none;stroke-opacity:1"
       d="M 67.074259,92.116545 53.844895,105.34592"
       id="path5-4" />
    <path
       style="fill:#fefeff;fill-opacity:0;stroke:#ffffff;stroke-width:5.29167;stroke-linecap:round;stroke-linejoin:miter;stroke-dasharray:none;stroke-opacity:1"
       d="M 67.175927,115.07135 53.946557,101.84198"
       id="path5-4-7" />
    <path
       style="fill:#fefeff;fill-opacity:0;stroke:#ffffff;stroke-width:4.58683;stroke-linecap:round;stroke-linejoin:miter;stroke-dasharray:none;stroke-opacity:1"
       d="M 128.26787,87.642815 V 115.36666"
       id="path5-8" />
    <path
       style="fill:#fefeff;fill-opacity:0;stroke:#ffffff;stroke-width:5.29167;stroke-linecap:round;stroke-linejoin:miter;stroke-dasharray:none;stroke-opacity:1"
       d="M 142.07386,92.080015 128.8445,105.30939"
       id="path5-4-8" />
    <path
       style="fill:#fefeff;fill-opacity:0;stroke:#ffffff;stroke-width:5.29167;stroke-linecap:round;stroke-linejoin:miter;stroke-dasharray:none;stroke-opacity:1"
       d="M 142.17553,115.03482 128.94616,101.80545"
       id="path5-4-7-4" />
    <ellipse
       style="fill:#fefeff;fill-opacity:1;stroke:#ffffff;stroke-width:0;stroke-linecap:round;stroke-linejoin:miter;stroke-dasharray:none;stroke-opacity:0.705056"
       id="path7"
       cx="76.580338"
       cy="91.732452"
       rx="2.6458333"
       ry="2.7557492" />
    <path
       style="fill:#fefeff;fill-opacity:0;stroke:#ffffff;stroke-width:5.29167;stroke-linecap:round;stroke-linejoin:miter;stroke-dasharray:none;stroke-opacity:1"
       id="path8"
       d="m -86.322493,-97.933006 a 6.008821,6.008821 0 0 1 -3.007239,5.205423 6.008821,6.008821 0 0 1 -6.011646,-0.0049 6.008821,6.008821 0 0 1 -2.998749,-5.210319"
       transform="scale(-1)" />
    <path
       style="fill:#fefeff;fill-opacity:0;stroke:#ffffff;stroke-width:5.29167;stroke-linecap:round;stroke-linejoin:miter;stroke-dasharray:none;stroke-opacity:1"
       d="M 107.59378,97.084805 V 109.0111"
       id="path5-6-8-3" />
    <path
       style="fill:#fefeff;fill-opacity:0;stroke:#ffffff;stroke-width:5.29167;stroke-linecap:round;stroke-linejoin:miter;stroke-dasharray:none;stroke-opacity:1"
       d="M 119.59734,97.917405 V 109.48796"
       id="path5-6-8-7-6" />
    <path
       style="fill:#fefeff;fill-opacity:0;stroke:#ffffff;stroke-width:5.29167;stroke-linecap:round;stroke-linejoin:miter;stroke-dasharray:none;stroke-opacity:1"
       id="path8-4"
       d="m -107.59016,-97.947372 a 6.008821,6.008821 0 0 1 -3.00724,5.205423 6.008821,6.008821 0 0 1 -6.01165,-0.0049 6.008821,6.008821 0 0 1 -2.99875,-5.210319"
       transform="scale(-1)" />
    <path
       style="fill:#fefeff;fill-opacity:0;stroke:#ffffff;stroke-width:5.29167;stroke-linecap:round;stroke-linejoin:miter;stroke-dasharray:none;stroke-opacity:1"
       id="path8-4-8"
       d="m 119.60384,109.2539 a 6.008821,6.008821 0 0 1 -3.00724,5.20542 6.008821,6.008821 0 0 1 -6.01165,-0.005 6.008821,6.008821 0 0 1 -2.99875,-5.21032" />
    <path
       style="fill:#fefeff;fill-opacity:0;stroke:#ffffff;stroke-width:5.29167;stroke-linecap:round;stroke-linejoin:miter;stroke-dasharray:none;stroke-opacity:1"
       d="M 151.61383,97.091605 V 109.0179"
       id="path5-6-8-3-6" />
    <path
       style="fill:#fefeff;fill-opacity:0;stroke:#ffffff;stroke-width:5.29167;stroke-linecap:round;stroke-linejoin:miter;stroke-dasharray:none;stroke-opacity:1"
       d="M 163.61739,97.924205 V 109.49476"
       id="path5-6-8-7-6-4" />
    <path
       style="fill:#fefeff;fill-opacity:0;stroke:#ffffff;stroke-width:5.29167;stroke-linecap:round;stroke-linejoin:miter;stroke-dasharray:none;stroke-opacity:1"
       id="path8-4-7"
       d="m -151.61021,-97.954178 a 6.008821,6.008821 0 0 1 -3.00724,5.205424 6.008821,6.008821 0 0 1 -6.01165,-0.0049 6.008821,6.008821 0 0 1 -2.99875,-5.210319"
       transform="scale(-1)" />
    <path
       style="fill:#fefeff;fill-opacity:0;stroke:#ffffff;stroke-width:5.29167;stroke-linecap:round;stroke-linejoin:miter;stroke-dasharray:none;stroke-opacity:1"
       id="path8-4-8-2"
       d="m 163.62389,109.2607 a 6.008821,6.008821 0 0 1 -3.00724,5.20542 6.008821,6.008821 0 0 1 -6.01165,-0.005 6.008821,6.008821 0 0 1 -2.99875,-5.21032" />
  </g>
</svg>
